# xmcd
#
# Track frame offsets: 
#        150
#        23861
#        51665
#        69974
#        92655
#        116449
#        137203
#        154218
#        184083
#        206781
#
# Disc length: 3022 seconds
#
# Revision: 0
# Processed by: cddbd v1.5.2PL0 Copyright (c) Steve Scherf et al.
# Submitted via: ExactAudioCopy v1.0b3
#
DISCID=8f0bcc0a
DTITLE=Tony Vegas - Cajun Ladies
DYEAR=2007
DGENRE=Blues Rock
TTITLE0=Since You Left Me
TTITLE1=Hey Loretta (The Red Sweater Song)
TTITLE2=Because You Touched My Heart
TTITLE3=Freddy Rides Again
TTITLE4=Cajun Ladies
TTITLE5=Driving on Sunday
TTITLE6=The "Oompa Loompa" (Dojo Song)
TTITLE7=Have You Ever Had the Blues?
TTITLE8=You Just Went a Little Crazy
TTITLE9=Try a Little Tenderness
EXTD=
EXTT0=
EXTT1=
EXTT2=
EXTT3=
EXTT4=
EXTT5=
EXTT6=
EXTT7=
EXTT8=
EXTT9=
PLAYORDER=
